<?xml version="1.0" encoding="UTF-8" standalone="no"?>
<svg width="48px" height="48px" viewBox="0 0 48 48" version="1.1" xmlns="http://www.w3.org/2000/svg" xmlns:xlink="http://www.w3.org/1999/xlink">
    <!-- Generator: Sketch 39.1 (31720) - http://www.bohemiancoding.com/sketch -->
    <title>arrow_down_scroll</title>
    <desc>Created with Sketch.</desc>
    <defs></defs>
    <g id="Styleguide" stroke="none" stroke-width="1" fill="none" fill-rule="evenodd">
        <g id="arrow_down_scroll" fill="#000000">
            <g id="arrow_down_touch" transform="translate(18.000000, 16.000000)">
                <path d="M7.01797768,7.32216641 C7.01797768,7.32216641 6.49069297,8 6.03104616,8 C5.59030887,8 5.04266006,7.32216641 5.04266006,7.32216641 L5.0332053,7.31198436 L0.260733198,1.93149844 C-0.0869110662,1.49076115 -0.0869110662,0.7700175 0.260733198,0.3300075 C0.609104752,-0.1100025 1.17929953,-0.1100025 1.52694379,0.3300075 L6.03031887,4.83483716 L10.5329667,0.3300075 C10.8820655,-0.1100025 11.4508057,-0.1100025 11.7999045,0.3300075 C12.1475488,0.7700175 12.1475488,1.49076115 11.7999045,1.93149844 L7.02743244,7.31198436 L7.01797768,7.32216641 L7.01797768,7.32216641 Z M7.01797768,16.3221664 C7.01797768,16.3221664 6.49069297,17 6.03104616,17 C5.59030887,17 5.04266006,16.3221664 5.04266006,16.3221664 L5.0332053,16.3119844 L0.260733198,10.9314984 C-0.0869110662,10.4907612 -0.0869110662,9.7700175 0.260733198,9.3300075 C0.609104752,8.8899975 1.17929953,8.8899975 1.52694379,9.3300075 L6.03031887,13.8348372 L10.5329667,9.3300075 C10.8820655,8.8899975 11.4508057,8.8899975 11.7999045,9.3300075 C12.1475488,9.7700175 12.1475488,10.4907612 11.7999045,10.9314984 L7.02743244,16.3119844 L7.01797768,16.3221664 L7.01797768,16.3221664 Z"></path>
            </g>
        </g>
    </g>
</svg>