<?xml version="1.0" encoding="UTF-8" standalone="no"?>
<svg width="48px" height="48px" viewBox="0 0 48 48" version="1.1" xmlns="http://www.w3.org/2000/svg" xmlns:xlink="http://www.w3.org/1999/xlink">
    <!-- Generator: Sketch 39.1 (31720) - http://www.bohemiancoding.com/sketch -->
    <title>error</title>
    <desc>Created with Sketch.</desc>
    <defs></defs>
    <g id="Styleguide" stroke="none" stroke-width="1" fill="none" fill-rule="evenodd">
        <g id="error" fill="#000000">
            <g transform="translate(21.000000, 17.000000)">
                <path d="M2.96999996,0 L2.96999996,5.48242812 C2.96999996,6.07029048 2.93244861,6.65335174 2.85734479,7.23162939 C2.78224096,7.80990704 2.68324196,8.39935802 2.56034479,9 L0.409655166,9 C0.286758002,8.39935802 0.187758993,7.80990704 0.112655171,7.23162939 C0.0375513481,6.65335174 0,6.07029048 0,5.48242812 L0,0 L2.96999996,0 Z M0,12.5 C0,12.2894726 0.0383518892,12.0935682 0.115056818,11.9122807 C0.191761747,11.7309932 0.296874332,11.5731001 0.430397727,11.4385965 C0.563921122,11.3040929 0.72159,11.1973688 0.903409091,11.1184211 C1.08522818,11.0394733 1.28408983,11 1.5,11 C1.71022832,11 1.90624909,11.0394733 2.08806818,11.1184211 C2.26988727,11.1973688 2.42897659,11.3040929 2.56534091,11.4385965 C2.70170523,11.5731001 2.80823825,11.7309932 2.88494318,11.9122807 C2.96164811,12.0935682 3,12.2894726 3,12.5 C3,12.7105274 2.96164811,12.9078938 2.88494318,13.0921053 C2.80823825,13.2763167 2.70170523,13.4356718 2.56534091,13.5701754 C2.42897659,13.704679 2.26988727,13.8099411 2.08806818,13.8859649 C1.90624909,13.9619887 1.71022832,14 1.5,14 C1.28408983,14 1.08522818,13.9619887 0.903409091,13.8859649 C0.72159,13.8099411 0.563921122,13.704679 0.430397727,13.5701754 C0.296874332,13.4356718 0.191761747,13.2763167 0.115056818,13.0921053 C0.0383518892,12.9078938 0,12.7105274 0,12.5 L0,12.5 Z"></path>
            </g>
        </g>
    </g>
</svg>