<?xml version="1.0" encoding="UTF-8" standalone="no"?>
<svg width="48px" height="48px" viewBox="0 0 48 48" version="1.1" xmlns="http://www.w3.org/2000/svg" xmlns:xlink="http://www.w3.org/1999/xlink">
    <!-- Generator: Sketch 39.1 (31720) - http://www.bohemiancoding.com/sketch -->
    <title>instagram</title>
    <desc>Created with Sketch.</desc>
    <defs></defs>
    <g id="Styleguide" stroke="none" stroke-width="1" fill="none" fill-rule="evenodd">
        <g id="instagram" fill="#000000">
            <g transform="translate(14.000000, 14.000000)">
                <path d="M2.56707223,0 L17.4329278,0 C18.8447046,0 19.9997947,1.04522819 19.9997947,2.56686688 L19.9997947,17.4331331 C19.9997947,18.9547718 18.8447046,20 17.4329278,20 L2.56707223,20 C1.15488475,20 0,18.9547718 0,17.4331331 L0,2.56686688 C0,1.04522819 1.15488475,0 2.56707223,0 L2.56707223,0 L2.56707223,0 Z M14.5691257,2.22208532 C14.0738231,2.22208532 13.6690795,2.63407592 13.6690795,3.13820031 L13.6690795,5.3308176 C13.6690795,5.83473308 14.0738231,6.24693259 14.5691257,6.24693259 L16.8296114,6.24693259 C17.324914,6.24693259 17.7300683,5.83473308 17.7300683,5.3308176 L17.7300683,3.13820031 C17.7300683,2.63407592 17.324914,2.22208532 16.8296114,2.22208532 L14.5691257,2.22208532 L14.5691257,2.22208532 Z M17.7395143,8.45792905 L15.9792597,8.45792905 C16.145798,9.00169413 16.2359464,9.57769906 16.2359464,10.1736229 C16.2359464,13.5002824 13.4522306,16.19693 10.0189948,16.19693 C6.58596437,16.19693 3.80265927,13.5002824 3.80265927,10.1736229 C3.80265927,9.57728836 3.89260229,9.00148878 4.05934596,8.45792905 L2.22249602,8.45792905 L2.22249602,16.9062067 C2.22249602,17.3433955 2.58021459,17.7013194 3.01760871,17.7013194 L16.9448124,17.7013194 C17.3822065,17.7013194 17.739925,17.3436008 17.739925,16.9062067 L17.739925,8.45792905 L17.7395143,8.45792905 L17.7395143,8.45792905 Z M10.0187895,6.06458237 C7.80060578,6.06458237 6.00215617,7.80697161 6.00215617,9.95656861 C6.00215617,12.1061656 7.80060578,13.8485549 10.0187895,13.8485549 C12.2371785,13.8485549 14.0358335,12.1061656 14.0358335,9.95656861 C14.0358335,7.80697161 12.2373838,6.06458237 10.0187895,6.06458237 L10.0187895,6.06458237 Z"></path>
            </g>
        </g>
    </g>
</svg>