<?xml version="1.0" encoding="UTF-8" standalone="no"?>
<svg width="48px" height="48px" viewBox="0 0 48 48" version="1.1" xmlns="http://www.w3.org/2000/svg" xmlns:xlink="http://www.w3.org/1999/xlink">
    <!-- Generator: Sketch 39.1 (31720) - http://www.bohemiancoding.com/sketch -->
    <title>mouse</title>
    <desc>Created with Sketch.</desc>
    <defs></defs>
    <g id="Styleguide" stroke="none" stroke-width="1" fill="none" fill-rule="evenodd">
        <g id="mouse" fill="#000000">
            <g transform="translate(13.000000, 7.000000)">
                <path d="M0,10.4965203 C0,4.70221631 4.93197429,0 11,0 C17.0763985,0 22,4.69615842 22,10.4965203 L22,23.5034797 C22,29.2977837 17.0680257,34 11,34 C4.9236015,34 0,29.3038416 0,23.5034797 L0,10.4965203 Z M2,10.4965203 L2,23.5034797 C2,28.2004793 6.02943725,32 11,32 C15.9604487,32 20,28.1959783 20,23.5034797 L20,10.4965203 C20,5.79952073 15.9705627,2 11,2 C6.03955135,2 2,5.80402173 2,10.4965203 Z M9,10.9981014 C9,9.89458045 9.88772964,9 11,9 C12.1045695,9 13,9.88670635 13,10.9981014 L13,15.0018986 C13,16.1054196 12.1122704,17 11,17 C9.8954305,17 9,16.1132936 9,15.0018986 L9,10.9981014 Z"></path>
            </g>
        </g>
    </g>
</svg>